<svg xmlns="http://www.w3.org/2000/svg" id="!;>9_1" data-name="!;>9 1" viewBox="0 0 900 534.7"><defs><style>.cls-1,.cls-2,.cls-4{stroke:#2d4942;stroke-miterlimit:10}.cls-1{fill:#fff;stroke-width:2px}.cls-2,.cls-4{fill:none}.cls-2{stroke-linecap:round;stroke-dasharray:1 3}.cls-3{fill:#2d4942}</style></defs><path d="M50 41.53h33.27V74.8H50z" class="cls-1"/><path d="M83.27 41.53h33.27V74.8H83.27zM116.54 41.53h33.27V74.8h-33.27zM149.82 41.53h33.27V74.8h-33.27zM183.09 41.53h33.27V74.8h-33.27zM216.36 41.53h33.27V74.8h-33.27zM249.64 41.53h33.27V74.8h-33.27zM282.91 41.53h33.27V74.8h-33.27z" class="cls-1"/><path d="M54 21a5.9 5.9 0 0 1-1.84-.28 3.9 3.9 0 0 1-1.42-.76V18.6a3.8 3.8 0 0 0 1.42.82 5.7 5.7 0 0 0 1.83.3c1.38 0 2.07-.44 2.07-1.34a1.08 1.08 0 0 0-.18-.64 1.4 1.4 0 0 0-.65-.42 8.5 8.5 0 0 0-1.34-.32 5.5 5.5 0 0 1-2.4-.93 2.1 2.1 0 0 1-.68-1.67 2.19 2.19 0 0 1 .94-1.88 4.32 4.32 0 0 1 2.58-.67 7.2 7.2 0 0 1 1.54.16 4.3 4.3 0 0 1 1.23.43v1.35a4.66 4.66 0 0 0-2.72-.68 3.2 3.2 0 0 0-1.57.3 1 1 0 0 0-.5.95 1 1 0 0 0 .15.56 1.35 1.35 0 0 0 .62.4 10 10 0 0 0 1.37.35 8.3 8.3 0 0 1 1.86.57 2.2 2.2 0 0 1 1 .84 2.53 2.53 0 0 1 .3 1.3 2.28 2.28 0 0 1-.94 1.93A4.25 4.25 0 0 1 54 21M58.72 13.26V12h1.05v-1.86h1.5V12h2.57v1.27h-2.57v5.31a1 1 0 0 0 .29.81 1.48 1.48 0 0 0 1 .26 2.07 2.07 0 0 0 1.21-.38v1.36a2 2 0 0 1-.71.27 4.5 4.5 0 0 1-.89.09 2.65 2.65 0 0 1-1.37-.32 2 2 0 0 1-.77-.83 2.54 2.54 0 0 1-.24-1.08v-5.5ZM64.94 16.39a5.4 5.4 0 0 1 .54-2.56 3.67 3.67 0 0 1 1.46-1.51 4 4 0 0 1 2-.5 3.5 3.5 0 0 1 1.73.41 3.2 3.2 0 0 1 1.18 1.19v-4.8h1.49v12.19H72l-.12-1.73a3.37 3.37 0 0 1-1.14 1.38 3.13 3.13 0 0 1-1.84.54 4 4 0 0 1-2-.5 3.64 3.64 0 0 1-1.42-1.5 5.5 5.5 0 0 1-.54-2.61m6.9 0a3.4 3.4 0 0 0-.78-2.45 2.62 2.62 0 0 0-1.94-.8 2.46 2.46 0 0 0-1.9.83 3.5 3.5 0 0 0-.75 2.42 3.47 3.47 0 0 0 .75 2.43 2.45 2.45 0 0 0 1.9.82 2.62 2.62 0 0 0 1.94-.8 3.38 3.38 0 0 0 .78-2.45M76.59 14.4a1.1 1.1 0 0 1-.8-.31 1.11 1.11 0 0 1 0-1.54 1.14 1.14 0 0 1 .8-.31 1.1 1.1 0 0 1 .78.31 1.08 1.08 0 0 1-.78 1.85m0 6.51a1.1 1.1 0 0 1-.8-.31 1.11 1.11 0 0 1 0-1.54 1.14 1.14 0 0 1 .8-.31 1.1 1.1 0 0 1 .78.31 1.08 1.08 0 0 1-.78 1.85M80.65 14.4a1.06 1.06 0 0 1-.79-.31 1.09 1.09 0 0 1 0-1.54 1.1 1.1 0 0 1 .79-.31 1.09 1.09 0 0 1 .78 1.85 1 1 0 0 1-.78.31m0 6.51a1.06 1.06 0 0 1-.79-.31 1.09 1.09 0 0 1 0-1.54 1.1 1.1 0 0 1 .79-.31 1.09 1.09 0 0 1 .78 1.85 1 1 0 0 1-.78.31M86.89 13.14A5.5 5.5 0 0 0 84 14v-1.33a5.5 5.5 0 0 1 1.45-.62 5.8 5.8 0 0 1 1.61-.23 3.9 3.9 0 0 1 2.53.7 2.55 2.55 0 0 1 .87 2.12v5.48a5 5 0 0 0 .06.69h-1.3a5 5 0 0 1-.1-.67 7 7 0 0 1 0-.76v-.25a4.2 4.2 0 0 1-.56.84 2.8 2.8 0 0 1-.94.72 3.3 3.3 0 0 1-1.52.31 2.73 2.73 0 0 1-1.92-.68 2.5 2.5 0 0 1-.73-1.92 2.39 2.39 0 0 1 1-2.13 5.2 5.2 0 0 1 2.88-.67H89v-.74a1.58 1.58 0 0 0-.48-1.3 2.54 2.54 0 0 0-1.63-.42M89 17.41v-.64h-1.5a3.7 3.7 0 0 0-2 .39 1.27 1.27 0 0 0-.6 1.13 1.34 1.34 0 0 0 .36 1 1.52 1.52 0 0 0 1.12.38 2.46 2.46 0 0 0 1.19-.28 2.8 2.8 0 0 0 .8-.68 3.2 3.2 0 0 0 .44-.76 1.8 1.8 0 0 0 .19-.54M97.2 13.48a4.2 4.2 0 0 0-1.79.53 2.7 2.7 0 0 0-1.08 1.19v5.61h-1.49V12h1.31l.15 1.92a3.66 3.66 0 0 1 1.17-1.43 3.57 3.57 0 0 1 1.7-.66ZM103.39 13.48a4.2 4.2 0 0 0-1.79.53 2.7 2.7 0 0 0-1.08 1.19v5.61H99V12h1.31l.16 1.92a3.7 3.7 0 0 1 1.16-1.43 3.65 3.65 0 0 1 1.71-.66ZM108 13.14a5.5 5.5 0 0 0-2.85.87v-1.34a5.5 5.5 0 0 1 1.45-.62 5.8 5.8 0 0 1 1.61-.23 3.93 3.93 0 0 1 2.53.7 2.55 2.55 0 0 1 .87 2.12v5.48c0 .3 0 .53.06.69h-1.36c0-.16-.06-.38-.09-.67a7 7 0 0 1 0-.76v-.25a4.7 4.7 0 0 1-.56.84 2.7 2.7 0 0 1-1 .72 3.3 3.3 0 0 1-1.45.29 2.73 2.73 0 0 1-1.92-.68 2.47 2.47 0 0 1-.73-1.92 2.39 2.39 0 0 1 1-2.13 5.2 5.2 0 0 1 2.87-.67h1.65v-.74a1.61 1.61 0 0 0-.47-1.3 2.58 2.58 0 0 0-1.61-.4m2.11 4.27v-.64h-1.49a3.7 3.7 0 0 0-2 .39 1.27 1.27 0 0 0-.6 1.13 1.34 1.34 0 0 0 .36 1 1.5 1.5 0 0 0 1.11.38 2.5 2.5 0 0 0 1.2-.28 2.8 2.8 0 0 0 .79-.68 3.3 3.3 0 0 0 .45-.76 1.7 1.7 0 0 0 .21-.54ZM114.75 24a3 3 0 0 1-1.16-.19v-1.45a1.74 1.74 0 0 0 1.11.29 1.84 1.84 0 0 0 1-.28 2.9 2.9 0 0 0 .81-1L112.93 12h1.65l2.8 7.44 2.79-7.44h1.45l-3.3 8.72a6.7 6.7 0 0 1-1.52 2.51 2.92 2.92 0 0 1-2.05.77"/><path d="M50 161.8h33.27v33.27H50z" class="cls-1"/><path d="M83.27 161.8h33.27v33.27H83.27zM116.54 161.8h33.27v33.27h-33.27zM149.82 161.8h33.27v33.27h-33.27zM183.09 161.8h33.27v33.27h-33.27zM216.36 161.8h33.27v33.27h-33.27zM249.64 161.8h33.27v33.27h-33.27zM282.91 161.8h33.27v33.27h-33.27z" class="cls-1"/><path d="M54 140.23a5.9 5.9 0 0 1-1.8-.23 3.9 3.9 0 0 1-1.42-.76v-1.34a3.8 3.8 0 0 0 1.42.82 5.7 5.7 0 0 0 1.8.28c1.38 0 2.07-.44 2.07-1.34a1.08 1.08 0 0 0-.18-.64 1.46 1.46 0 0 0-.65-.42 8.5 8.5 0 0 0-1.38-.35 5.5 5.5 0 0 1-2.4-.93 2.1 2.1 0 0 1-.68-1.67 2.19 2.19 0 0 1 .94-1.88 4.32 4.32 0 0 1 2.58-.67 7.2 7.2 0 0 1 1.54.16 4.3 4.3 0 0 1 1.23.43V133a4.66 4.66 0 0 0-2.72-.68 3.15 3.15 0 0 0-1.57.3 1 1 0 0 0-.5 1 1 1 0 0 0 .15.56 1.3 1.3 0 0 0 .61.4 10 10 0 0 0 1.38.35 8.3 8.3 0 0 1 1.86.57 2.2 2.2 0 0 1 1 .84 2.53 2.53 0 0 1 .3 1.3 2.28 2.28 0 0 1-.94 1.93 4.25 4.25 0 0 1-2.64.66M58.72 132.51v-1.27h1.05v-1.85h1.5v1.85h2.57v1.27h-2.57v5.31a1 1 0 0 0 .29.81 1.48 1.48 0 0 0 1 .26 2.07 2.07 0 0 0 1.21-.38v1.36a2 2 0 0 1-.71.27 4.5 4.5 0 0 1-.89.09 2.65 2.65 0 0 1-1.37-.32 2 2 0 0 1-.77-.83 2.54 2.54 0 0 1-.24-1.08v-5.49ZM64.94 135.64a5.4 5.4 0 0 1 .54-2.56 3.67 3.67 0 0 1 1.46-1.51 4 4 0 0 1 2-.5 3.5 3.5 0 0 1 1.73.41 3.2 3.2 0 0 1 1.18 1.19v-4.8h1.49v12.19H72l-.12-1.73a3.37 3.37 0 0 1-1.14 1.38 3.13 3.13 0 0 1-1.85.52 4 4 0 0 1-2-.5 3.64 3.64 0 0 1-1.46-1.52 5.5 5.5 0 0 1-.49-2.57m6.9 0a3.4 3.4 0 0 0-.78-2.45 2.62 2.62 0 0 0-1.94-.8 2.46 2.46 0 0 0-1.9.83 4.3 4.3 0 0 0 0 4.85 2.45 2.45 0 0 0 1.9.82 2.62 2.62 0 0 0 1.94-.8 3.38 3.38 0 0 0 .78-2.45M76.59 133.65a1.1 1.1 0 0 1-.8-.31 1.11 1.11 0 0 1 0-1.54 1.13 1.13 0 0 1 .8-.31 1.1 1.1 0 0 1 .78.31 1.08 1.08 0 0 1-.78 1.85m0 6.51a1.1 1.1 0 0 1-.8-.31 1.11 1.11 0 0 1 0-1.54 1.13 1.13 0 0 1 .8-.31 1.1 1.1 0 0 1 .78.31 1.08 1.08 0 0 1-.78 1.85M80.65 133.65a1.06 1.06 0 0 1-.79-.31 1.09 1.09 0 0 1 0-1.54 1.1 1.1 0 0 1 .79-.31 1.09 1.09 0 0 1 .78 1.85 1 1 0 0 1-.78.31m0 6.51a1.06 1.06 0 0 1-.79-.31 1.09 1.09 0 0 1 0-1.54 1.1 1.1 0 0 1 .79-.31 1.09 1.09 0 0 1 .78 1.85 1 1 0 0 1-.78.31M82.84 131.24h1.62l2.68 8 2.67-8h1.5l-3 8.82h-2.44ZM96.35 140.23A4.46 4.46 0 0 1 93 139a4.67 4.67 0 0 1-1.16-3.38 5.2 5.2 0 0 1 .54-2.46 3.8 3.8 0 0 1 1.5-1.57 4.23 4.23 0 0 1 2.14-.54 3.38 3.38 0 0 1 3 1.33 4.9 4.9 0 0 1 .62 3.65h-6.28a2.76 2.76 0 0 0 3.13 2.84 5.24 5.24 0 0 0 3-.92v1.34A4.8 4.8 0 0 1 98 140a5.7 5.7 0 0 1-1.65.23m-.35-7.84a2.46 2.46 0 0 0-1.66.6 2.86 2.86 0 0 0-.89 1.8h4.75a2.36 2.36 0 0 0-.53-1.77 2.16 2.16 0 0 0-1.67-.63M105.26 140.23A4.3 4.3 0 0 1 102 139a5.36 5.36 0 0 1 0-6.75 4.5 4.5 0 0 1 3.3-1.2 6 6 0 0 1 1.5.18 2.9 2.9 0 0 1 1.12.52v1.34a4.8 4.8 0 0 0-2.6-.72 2.9 2.9 0 0 0-2.26.81 3.52 3.52 0 0 0-.73 2.44 3.63 3.63 0 0 0 .7 2.44 2.78 2.78 0 0 0 2.2.81 5.35 5.35 0 0 0 2.69-.7v1.34a4.9 4.9 0 0 1-2.66.72M109.14 132.51v-1.27h1v-1.85h1.5v1.85h2.57v1.27h-2.57v5.31a1 1 0 0 0 .29.81 1.48 1.48 0 0 0 1 .26 2.07 2.07 0 0 0 1.21-.38v1.36a2 2 0 0 1-.71.27 4.5 4.5 0 0 1-.89.09 2.65 2.65 0 0 1-1.37-.32 2 2 0 0 1-.77-.83 2.54 2.54 0 0 1-.24-1.08v-5.49ZM119.52 140.23a4.4 4.4 0 0 1-2.16-.53 3.84 3.84 0 0 1-1.52-1.57 5.7 5.7 0 0 1 0-5 3.87 3.87 0 0 1 1.52-1.56 4.4 4.4 0 0 1 2.16-.53 4.56 4.56 0 0 1 2.2.53 4 4 0 0 1 1.53 1.56 5.79 5.79 0 0 1 0 5 3.9 3.9 0 0 1-1.53 1.57 4.56 4.56 0 0 1-2.2.53m0-1.34a2.7 2.7 0 0 0 2-.79 4.27 4.27 0 0 0 0-4.92 2.7 2.7 0 0 0-2-.79 2.62 2.62 0 0 0-1.94.79 4.31 4.31 0 0 0 0 4.92 2.62 2.62 0 0 0 1.94.79M130 132.73a4.2 4.2 0 0 0-1.8.53 2.7 2.7 0 0 0-1.08 1.19v5.61h-1.49v-8.82h1.31l.15 1.92a3.84 3.84 0 0 1 1.17-1.43 3.57 3.57 0 0 1 1.71-.66Z"/><path d="M50 270.02h33.27v33.27H50z" class="cls-1"/><path d="M83.27 270.02h33.27v33.27H83.27zM116.54 270.02h33.27v33.27h-33.27zM149.82 270.02h33.27v33.27h-33.27zM183.09 270.02h33.27v33.27h-33.27zM216.36 270.02h33.27v33.27h-33.27zM249.64 270.02h33.27v33.27h-33.27zM282.91 270.02h33.27v33.27h-33.27z" class="cls-1"/><path d="M54 250.19a5.9 5.9 0 0 1-1.84-.28 3.9 3.9 0 0 1-1.42-.76v-1.34a3.8 3.8 0 0 0 1.42.82 5.7 5.7 0 0 0 1.83.3c1.38 0 2.07-.45 2.07-1.34a1.08 1.08 0 0 0-.18-.64 1.46 1.46 0 0 0-.65-.42 8.5 8.5 0 0 0-1.38-.35 5.5 5.5 0 0 1-2.4-.93 2.1 2.1 0 0 1-.68-1.67 2.19 2.19 0 0 1 .94-1.88 4.32 4.32 0 0 1 2.58-.67 7.2 7.2 0 0 1 1.54.16 4.3 4.3 0 0 1 1.23.43V243a4.74 4.74 0 0 0-2.72-.67 3.15 3.15 0 0 0-1.57.3 1 1 0 0 0-.5.95 1 1 0 0 0 .15.56 1.3 1.3 0 0 0 .61.4 10 10 0 0 0 1.38.35 8.3 8.3 0 0 1 1.86.57 2.2 2.2 0 0 1 1 .84 2.53 2.53 0 0 1 .3 1.3 2.28 2.28 0 0 1-.94 1.93 4.25 4.25 0 0 1-2.63.66M58.72 242.47v-1.27h1.05v-1.86h1.5v1.86h2.57v1.27h-2.57v5.31a1 1 0 0 0 .29.81 1.48 1.48 0 0 0 1 .26 2.07 2.07 0 0 0 1.21-.38v1.36a2.2 2.2 0 0 1-.71.27 4.5 4.5 0 0 1-.89.09 2.65 2.65 0 0 1-1.37-.32 1.94 1.94 0 0 1-.8-.87 2.46 2.46 0 0 1-.24-1.07v-5.49ZM64.94 245.6a5.4 5.4 0 0 1 .54-2.56 3.67 3.67 0 0 1 1.46-1.51 3.94 3.94 0 0 1 2-.5 3.5 3.5 0 0 1 1.73.41 3.26 3.26 0 0 1 1.18 1.18v-4.79h1.49V250H72l-.12-1.73a3.44 3.44 0 0 1-1.14 1.38 3.13 3.13 0 0 1-1.85.52 4 4 0 0 1-2-.5 3.7 3.7 0 0 1-1.46-1.52 5.5 5.5 0 0 1-.49-2.55m6.9 0a3.38 3.38 0 0 0-.78-2.45 2.62 2.62 0 0 0-1.94-.8 2.46 2.46 0 0 0-1.9.83 4.3 4.3 0 0 0 0 4.85 2.45 2.45 0 0 0 1.9.82 2.62 2.62 0 0 0 1.94-.8 3.38 3.38 0 0 0 .78-2.45M76.59 243.61a1.06 1.06 0 0 1-1.11-1.07 1.06 1.06 0 0 1 .31-.78 1.1 1.1 0 0 1 .8-.31 1 1 0 0 1 1.08 1.09 1.07 1.07 0 0 1-.3.76 1.06 1.06 0 0 1-.78.31m0 6.51a1.1 1.1 0 0 1-.8-.31 1.11 1.11 0 0 1 0-1.54 1.1 1.1 0 0 1 .8-.31 1.08 1.08 0 1 1 0 2.16M80.65 243.61a1.06 1.06 0 0 1-.79-.31 1.05 1.05 0 0 1-.32-.76 1 1 0 0 1 .32-.78 1.06 1.06 0 0 1 .79-.31 1 1 0 0 1 .78.31 1.06 1.06 0 0 1 .31.78 1.08 1.08 0 0 1-.31.76 1 1 0 0 1-.78.31m0 6.51a1.06 1.06 0 0 1-.79-.31 1.09 1.09 0 0 1 0-1.54 1.06 1.06 0 0 1 .79-.31 1 1 0 0 1 .78.31 1.11 1.11 0 0 1 0 1.54 1 1 0 0 1-.78.31M83.27 245.6a5.4 5.4 0 0 1 .54-2.56 3.65 3.65 0 0 1 1.45-1.51 4 4 0 0 1 2-.5 3.55 3.55 0 0 1 1.74.41 3.23 3.23 0 0 1 1.17 1.18v-4.79h1.5V250h-1.33l-.12-1.73a3.46 3.46 0 0 1-1.15 1.38 3.1 3.1 0 0 1-1.84.52 4.06 4.06 0 0 1-2-.5 3.7 3.7 0 0 1-1.45-1.52 5.5 5.5 0 0 1-.51-2.55m6.9 0a3.38 3.38 0 0 0-.78-2.45 2.63 2.63 0 0 0-1.94-.8 2.48 2.48 0 0 0-1.91.83 4.34 4.34 0 0 0 0 4.85 2.47 2.47 0 0 0 1.91.82 2.63 2.63 0 0 0 1.94-.8 3.38 3.38 0 0 0 .78-2.45M98 250.19a4.42 4.42 0 0 1-3.37-1.19 4.65 4.65 0 0 1-1.16-3.37 5.2 5.2 0 0 1 .54-2.46 3.73 3.73 0 0 1 1.5-1.57 4.23 4.23 0 0 1 2.14-.54 3.38 3.38 0 0 1 3 1.33 4.87 4.87 0 0 1 .61 3.65H95a2.76 2.76 0 0 0 3.13 2.84 5.24 5.24 0 0 0 3-.92v1.34a4.8 4.8 0 0 1-1.43.67 5.7 5.7 0 0 1-1.7.22m-.39-7.84A2.46 2.46 0 0 0 96 243a2.84 2.84 0 0 0-.89 1.8h4.75a2.4 2.4 0 0 0-.53-1.77 2.16 2.16 0 0 0-1.72-.68M106.42 250.19a4 4 0 0 1-2-.5 3.64 3.64 0 0 1-1.46-1.52 5.5 5.5 0 0 1-.54-2.57 5.3 5.3 0 0 1 .58-2.6 3.7 3.7 0 0 1 1.45-1.51 3.94 3.94 0 0 1 2-.5 3.4 3.4 0 0 1 1.77.45 3 3 0 0 1 1.18 1.25c0-.32 0-.63.08-.94a4 4 0 0 1 .08-.59h1.37c0 .14 0 .37-.06.67s0 .55 0 .74V253h-1.5v-4.61a3.44 3.44 0 0 1-1.13 1.29 3.17 3.17 0 0 1-1.82.51m.22-1.34a2.62 2.62 0 0 0 1.94-.8 4.22 4.22 0 0 0 0-4.89 2.6 2.6 0 0 0-1.94-.81 2.44 2.44 0 0 0-1.9.83 4.3 4.3 0 0 0 0 4.85 2.43 2.43 0 0 0 1.9.82M119 248.44a3.25 3.25 0 0 1-1.1 1.24 3.33 3.33 0 0 1-1.93.51 2.77 2.77 0 0 1-2-.7 2.72 2.72 0 0 1-.76-2.12v-6.17h1.52v6.17a1.27 1.27 0 0 0 .47 1.17 2.1 2.1 0 0 0 1.17.31 2.6 2.6 0 0 0 1.59-.45 3.8 3.8 0 0 0 1-1.2v-6h1.49v8.8h-1.32l-.14-1.58ZM126.82 250.19a4.45 4.45 0 0 1-3.38-1.22 4.7 4.7 0 0 1-1.16-3.37 5.2 5.2 0 0 1 .54-2.46 3.8 3.8 0 0 1 1.5-1.57 4.25 4.25 0 0 1 2.14-.54 3.42 3.42 0 0 1 3 1.33 4.9 4.9 0 0 1 .61 3.65h-6.22c.12 1.89 1.16 2.84 3.12 2.84a5.24 5.24 0 0 0 3-.92v1.34a4.7 4.7 0 0 1-1.43.67 5.6 5.6 0 0 1-1.72.25m-.39-7.84a2.48 2.48 0 0 0-1.67.6 2.83 2.83 0 0 0-.88 1.8h4.74a2.36 2.36 0 0 0-.53-1.77 2.13 2.13 0 0 0-1.66-.63"/><path d="M318.4 286.66h42.28" class="cls-2"/><path d="m359.22 291.64 8.64-4.98-8.64-4.99z" class="cls-3"/><path d="M318.4 177.03h42.28" class="cls-2"/><path d="m359.22 182.01 8.64-4.98-8.64-4.99z" class="cls-3"/><path d="M49.46 286.66H7.18" class="cls-2"/><path d="M8.63 281.67 0 286.66l8.63 4.98z" class="cls-3"/><path d="M282.91 398.01h42.28" class="cls-2"/><path d="m323.73 403 8.64-4.99-8.64-4.99z" class="cls-3"/><path d="M49.46 398.01H7.18" class="cls-2"/><path d="M8.63 393.02 0 398.01 8.63 403z" class="cls-3"/><path d="M49.46 512.52H7.18" class="cls-2"/><path d="M8.63 507.53 0 512.52l8.63 4.98z" class="cls-3"/><path d="M50 381.37h33.27v33.27H50zM116.54 381.37h33.27v33.27h-33.27zM183.09 381.37h33.27v33.27h-33.27zM249.64 381.37h33.27v33.27h-33.27z" class="cls-1"/><path d="M54.05 361.54a6 6 0 0 1-1.85-.28 4 4 0 0 1-1.42-.75v-1.35a3.9 3.9 0 0 0 1.42.82 5.8 5.8 0 0 0 1.83.31q2.07 0 2.07-1.35a1.15 1.15 0 0 0-.17-.64 1.44 1.44 0 0 0-.66-.42 8.5 8.5 0 0 0-1.38-.35 5.3 5.3 0 0 1-2.39-.93 2.05 2.05 0 0 1-.68-1.67 2.2 2.2 0 0 1 .93-1.88 4.36 4.36 0 0 1 2.59-.67 7 7 0 0 1 1.53.16 4.5 4.5 0 0 1 1.24.43v1.35a4.7 4.7 0 0 0-2.72-.68 3.2 3.2 0 0 0-1.58.3 1.06 1.06 0 0 0-.5 1 .93.93 0 0 0 .16.56 1.33 1.33 0 0 0 .61.39 10 10 0 0 0 1.37.35 8.2 8.2 0 0 1 1.87.57 2.3 2.3 0 0 1 1 .85 2.5 2.5 0 0 1 .3 1.29 2.27 2.27 0 0 1-.94 1.94 4.3 4.3 0 0 1-2.63.65M58.72 353.83v-1.28h1.06v-1.85h1.49v1.85h2.57v1.28h-2.57v5.3a1 1 0 0 0 .29.81 1.43 1.43 0 0 0 1 .26 2.05 2.05 0 0 0 1.2-.37v1.36a2.3 2.3 0 0 1-.71.26 4.5 4.5 0 0 1-.88.09 2.66 2.66 0 0 1-1.38-.32 2 2 0 0 1-.77-.83 2.5 2.5 0 0 1-.23-1.07v-5.49ZM64.94 357a5.3 5.3 0 0 1 .55-2.56 3.65 3.65 0 0 1 1.45-1.51 4.1 4.1 0 0 1 2-.5 3.4 3.4 0 0 1 1.73.42 3.1 3.1 0 0 1 1.16 1.15v-4.8h1.49v12.19H72l-.12-1.73a3.5 3.5 0 0 1-1.13 1.34 3.1 3.1 0 0 1-1.85.52 3.94 3.94 0 0 1-2-.5 3.56 3.56 0 0 1-1.45-1.52 5.34 5.34 0 0 1-.51-2.5m6.91 0a3.4 3.4 0 0 0-.79-2.45 2.6 2.6 0 0 0-1.93-.79 2.45 2.45 0 0 0-1.91.82 4.3 4.3 0 0 0 0 4.85 2.45 2.45 0 0 0 1.91.82 2.6 2.6 0 0 0 1.93-.8 3.4 3.4 0 0 0 .79-2.45M76.59 355a1.06 1.06 0 0 1-.79-.31 1 1 0 0 1-.32-.76 1 1 0 0 1 .32-.78 1.1 1.1 0 0 1 .79-.3 1.06 1.06 0 0 1 .78.3 1.08 1.08 0 0 1 .31.78 1.07 1.07 0 0 1-.31.76 1 1 0 0 1-.78.31m0 6.51a1.06 1.06 0 0 1-.79-.31 1 1 0 0 1-.32-.76 1.06 1.06 0 0 1 .32-.78 1.1 1.1 0 0 1 .79-.3 1.06 1.06 0 0 1 .78.3 1.1 1.1 0 0 1 .31.78 1.07 1.07 0 0 1-.31.76 1 1 0 0 1-.78.27ZM80.65 355a1.06 1.06 0 0 1-.79-.31 1 1 0 0 1-.31-.76 1 1 0 0 1 .31-.78 1.1 1.1 0 0 1 .79-.3 1.06 1.06 0 0 1 .78.3 1 1 0 0 1 .31.78 1.06 1.06 0 0 1-1.09 1.07m0 6.51a1.06 1.06 0 0 1-.79-.31 1 1 0 0 1-.31-.76 1.06 1.06 0 0 1 .31-.78 1.1 1.1 0 0 1 .79-.3 1 1 0 0 1 1.09 1.08 1.06 1.06 0 0 1-1.09 1.07M83.9 349.2h1.49v12.17H83.9ZM88.58 351.27a1 1 0 0 1-.73-1.66.94.94 0 0 1 .73-.29.86.86 0 0 1 .7.29 1.08 1.08 0 0 1 0 1.38.88.88 0 0 1-.7.28m-.76 1.29h1.49v8.81h-1.49ZM94.56 361.54a5.9 5.9 0 0 1-1.84-.28 3.9 3.9 0 0 1-1.42-.75v-1.34a3.66 3.66 0 0 0 1.42.81 5.7 5.7 0 0 0 1.82.31q2.07 0 2.07-1.35a1 1 0 0 0-.18-.63 1.3 1.3 0 0 0-.65-.43 10 10 0 0 0-1.37-.34 5.4 5.4 0 0 1-2.4-.93 2.1 2.1 0 0 1-.68-1.67 2.17 2.17 0 0 1 .94-1.88 4.32 4.32 0 0 1 2.58-.67 7 7 0 0 1 1.53.16 4.2 4.2 0 0 1 1.24.44v1.34a4.7 4.7 0 0 0-2.72-.68 3.15 3.15 0 0 0-1.57.3 1 1 0 0 0-.5.95 1 1 0 0 0 .15.56 1.23 1.23 0 0 0 .61.39 8.5 8.5 0 0 0 1.38.36 8.3 8.3 0 0 1 1.86.57 2.23 2.23 0 0 1 1 .84 2.5 2.5 0 0 1 .3 1.29 2.27 2.27 0 0 1-.94 1.94 4.3 4.3 0 0 1-2.63.69M99.23 353.83v-1.27h1v-1.85h1.5v1.85h2.56v1.27h-2.56v5.3a1 1 0 0 0 .28.82 1.5 1.5 0 0 0 1 .25 2.05 2.05 0 0 0 1.2-.37v1.36a2.2 2.2 0 0 1-.71.26 4.4 4.4 0 0 1-.88.09 2.66 2.66 0 0 1-1.38-.32 1.9 1.9 0 0 1-.76-.83 2.5 2.5 0 0 1-.24-1.07v-5.49Z"/><path d="M83.27 389.69h26.1" class="cls-4"/><path d="m107.91 394.68 8.64-4.99-8.64-4.98z" class="cls-3"/><path d="M116.54 406.33H90.45" class="cls-4"/><path d="m91.91 401.34-8.64 4.99 8.64 4.98z" class="cls-3"/><path d="M149.82 389.69h26.09" class="cls-4"/><path d="m174.46 394.68 8.63-4.99-8.63-4.98z" class="cls-3"/><path d="M183.09 406.33h-26.1" class="cls-4"/><path d="m158.45 401.34-8.63 4.99 8.63 4.98z" class="cls-3"/><path d="M216.36 389.69h26.1" class="cls-4"/><path d="m241 394.68 8.64-4.99-8.64-4.98z" class="cls-3"/><path d="M249.64 406.33h-26.1" class="cls-4"/><path d="m225 401.34-8.64 4.99 8.64 4.98z" class="cls-3"/><path d="M50 495.02h33.27v33.27H50zM116.54 495.02h33.27v33.27h-33.27zM183.09 495.02h33.27v33.27h-33.27zM249.64 495.02h33.27v33.27h-33.27z" class="cls-1"/><path d="M54 475.19a6.2 6.2 0 0 1-1.84-.28 3.9 3.9 0 0 1-1.42-.76v-1.34a3.66 3.66 0 0 0 1.42.81 5.4 5.4 0 0 0 1.83.31c1.38 0 2.07-.45 2.07-1.34a1.05 1.05 0 0 0-.18-.64 1.4 1.4 0 0 0-.65-.43 10 10 0 0 0-1.38-.34 5.5 5.5 0 0 1-2.4-.93 2.11 2.11 0 0 1-.68-1.68 2.17 2.17 0 0 1 .94-1.87 4.32 4.32 0 0 1 2.58-.68 7.2 7.2 0 0 1 1.54.17 4 4 0 0 1 1.23.43V468a4.73 4.73 0 0 0-2.72-.68 3.06 3.06 0 0 0-1.57.31 1 1 0 0 0-.5 1 1 1 0 0 0 .15.56 1.27 1.27 0 0 0 .62.39 8.3 8.3 0 0 0 1.37.36 8.3 8.3 0 0 1 1.86.57 2.2 2.2 0 0 1 1 .84 2.5 2.5 0 0 1 .3 1.29 2.29 2.29 0 0 1-.94 1.94 4.25 4.25 0 0 1-2.63.61M58.72 467.47v-1.28h1.05v-1.85h1.5v1.85h2.57v1.28h-2.57v5.3a1 1 0 0 0 .29.82 1.48 1.48 0 0 0 1 .25 2.06 2.06 0 0 0 1.21-.37v1.36a2.3 2.3 0 0 1-.71.26 4 4 0 0 1-.89.1 2.55 2.55 0 0 1-1.37-.33 1.92 1.92 0 0 1-.8-.86 2.5 2.5 0 0 1-.24-1.07v-5.49ZM64.94 470.6a5.4 5.4 0 0 1 .54-2.56 3.6 3.6 0 0 1 1.46-1.51 4 4 0 0 1 2-.51 3.4 3.4 0 0 1 1.73.42 3.2 3.2 0 0 1 1.18 1.18v-4.79h1.49V475H72l-.12-1.74a3.47 3.47 0 0 1-1.14 1.39 3.13 3.13 0 0 1-1.85.52 4 4 0 0 1-2-.5 3.7 3.7 0 0 1-1.46-1.53 5.4 5.4 0 0 1-.49-2.54m6.9 0a3.38 3.38 0 0 0-.78-2.45 2.62 2.62 0 0 0-1.94-.8 2.46 2.46 0 0 0-1.9.83 4.3 4.3 0 0 0 0 4.85 2.47 2.47 0 0 0 1.9.81 2.6 2.6 0 0 0 1.94-.79 3.4 3.4 0 0 0 .78-2.45M76.59 468.61a1.1 1.1 0 0 1-.8-.32 1.1 1.1 0 0 1 0-1.53 1.1 1.1 0 0 1 .8-.31 1.08 1.08 0 1 1 0 2.16m0 6.51a1.1 1.1 0 0 1-.8-.31 1.08 1.08 0 0 1-.31-.76 1.06 1.06 0 0 1 .31-.78 1.1 1.1 0 0 1 .8-.31 1 1 0 0 1 1.08 1.09 1.07 1.07 0 0 1-.3.76 1.06 1.06 0 0 1-.78.31M80.65 468.61a1.07 1.07 0 0 1-.79-.32 1.07 1.07 0 0 1 0-1.53 1.06 1.06 0 0 1 .79-.31 1 1 0 0 1 .78.31 1.1 1.1 0 0 1 0 1.53 1 1 0 0 1-.78.32m0 6.51a1.06 1.06 0 0 1-.79-.31 1.05 1.05 0 0 1-.32-.76 1 1 0 0 1 .32-.78 1.06 1.06 0 0 1 .79-.31 1 1 0 0 1 .78.31 1.06 1.06 0 0 1 .31.78 1.08 1.08 0 0 1-.31.76 1 1 0 0 1-.78.31M84.42 475v-7.55h-1.07v-1.28h1.07V466a3.35 3.35 0 0 1 .84-2.43 3 3 0 0 1 2.27-.86 3.8 3.8 0 0 1 1.13.15v1.36a1.7 1.7 0 0 0-.45-.12 4 4 0 0 0-.61-.05 1.63 1.63 0 0 0-1.23.47 2.1 2.1 0 0 0-.45 1.48v.22h2.55v1.28h-2.55v7.5ZM93.33 475.19a4.34 4.34 0 0 1-2.17-.54 3.87 3.87 0 0 1-1.52-1.56 5.2 5.2 0 0 1-.56-2.49 5.1 5.1 0 0 1 .56-2.48 3.94 3.94 0 0 1 1.52-1.56 4.34 4.34 0 0 1 2.17-.54 4.4 4.4 0 0 1 2.19.54 3.83 3.83 0 0 1 1.53 1.56 5 5 0 0 1 .56 2.48 5.1 5.1 0 0 1-.56 2.49 3.77 3.77 0 0 1-1.53 1.56 4.4 4.4 0 0 1-2.19.54m0-1.35a2.65 2.65 0 0 0 2-.79 3.35 3.35 0 0 0 .78-2.45 3.4 3.4 0 0 0-.78-2.46 2.65 2.65 0 0 0-2-.79 2.62 2.62 0 0 0-2 .79 3.44 3.44 0 0 0-.77 2.46 3.4 3.4 0 0 0 .77 2.45 2.62 2.62 0 0 0 2 .79M103.8 467.69a4.05 4.05 0 0 0-1.79.53 2.64 2.64 0 0 0-1.08 1.19V475h-1.5v-8.83h1.31l.15 1.93a3.7 3.7 0 0 1 1.16-1.43 3.66 3.66 0 0 1 1.71-.67ZM117.23 466.19l-2 8.83h-2.3l-1.87-6.82-1.92 6.8h-2.23l-2-8.83h1.58l1.68 7.71 2.14-7.71H112l2.09 7.62 1.66-7.62ZM121.87 467.35a5.5 5.5 0 0 0-2.85.87v-1.35a5.7 5.7 0 0 1 1.45-.62 6 6 0 0 1 1.61-.23 4 4 0 0 1 2.53.7 2.57 2.57 0 0 1 .87 2.13v5.48c0 .3 0 .53.06.69h-1.34c0-.16-.06-.38-.09-.67a7 7 0 0 1 0-.76v-.26a4.4 4.4 0 0 1-.56.85 2.9 2.9 0 0 1-.95.72 3.3 3.3 0 0 1-1.45.29 2.73 2.73 0 0 1-1.92-.68 2.5 2.5 0 0 1-.73-1.92 2.38 2.38 0 0 1 1-2.13 5.2 5.2 0 0 1 2.87-.68H124v-.73a1.6 1.6 0 0 0-.48-1.31 2.6 2.6 0 0 0-1.65-.39m2.11 4.27V471h-1.5a3.7 3.7 0 0 0-1.94.39 1.28 1.28 0 0 0-.61 1.14 1.34 1.34 0 0 0 .37 1 1.47 1.47 0 0 0 1.11.37 2.33 2.33 0 0 0 1.19-.28 2.4 2.4 0 0 0 .8-.68 3 3 0 0 0 .45-.75 2 2 0 0 0 .15-.57ZM132.19 467.69a4.05 4.05 0 0 0-1.79.53 2.54 2.54 0 0 0-1.08 1.19V475h-1.5v-8.83h1.31l.15 1.93a3.7 3.7 0 0 1 1.16-1.43 3.6 3.6 0 0 1 1.71-.67ZM133.12 470.6a5.4 5.4 0 0 1 .55-2.56 3.6 3.6 0 0 1 1.45-1.51 4 4 0 0 1 2-.51 3.45 3.45 0 0 1 1.74.42 3.16 3.16 0 0 1 1.17 1.18v-4.79h1.5V475h-1.33l-.12-1.74a3.5 3.5 0 0 1-1.15 1.39 3.1 3.1 0 0 1-1.84.52 4.06 4.06 0 0 1-2-.5 3.7 3.7 0 0 1-1.45-1.53 5.4 5.4 0 0 1-.52-2.54m6.91 0a3.38 3.38 0 0 0-.78-2.45 2.63 2.63 0 0 0-1.94-.8 2.48 2.48 0 0 0-1.91.83 4.34 4.34 0 0 0 0 4.85 2.5 2.5 0 0 0 1.91.81 2.62 2.62 0 0 0 1.94-.79 3.4 3.4 0 0 0 .75-2.45ZM142.56 477v-1.3h7v1.3ZM150.58 462.83h1.5V475h-1.5ZM155.28 464.9a1 1 0 0 1-.74-.28.93.93 0 0 1-.27-.69 1 1 0 0 1 1-1 .85.85 0 0 1 .69.29 1 1 0 0 1 .26.69 1 1 0 0 1-.26.69.88.88 0 0 1-.68.3m-.77 1.29H156V475h-1.5ZM161.26 475.19a6.2 6.2 0 0 1-1.84-.28 3.9 3.9 0 0 1-1.42-.76v-1.34a3.66 3.66 0 0 0 1.42.81 5.4 5.4 0 0 0 1.82.31c1.38 0 2.08-.45 2.08-1.34a1.05 1.05 0 0 0-.18-.64 1.45 1.45 0 0 0-.66-.43 9 9 0 0 0-1.37-.34 5.4 5.4 0 0 1-2.4-.93 2.11 2.11 0 0 1-.68-1.68 2.17 2.17 0 0 1 .93-1.87 4.38 4.38 0 0 1 2.59-.68 7.3 7.3 0 0 1 1.54.17 4.2 4.2 0 0 1 1.23.43V468a4.76 4.76 0 0 0-2.72-.68 3 3 0 0 0-1.57.31 1 1 0 0 0-.51 1 1 1 0 0 0 .16.56 1.23 1.23 0 0 0 .61.39 9 9 0 0 0 1.38.36 8.3 8.3 0 0 1 1.86.57 2.2 2.2 0 0 1 1 .84 2.6 2.6 0 0 1 .29 1.29 2.28 2.28 0 0 1-.93 1.94 4.27 4.27 0 0 1-2.63.61M165.93 467.47v-1.28H167v-1.85h1.49v1.85h2.57v1.28h-2.57v5.3a1 1 0 0 0 .29.82 1.5 1.5 0 0 0 1 .25 2.1 2.1 0 0 0 1.21-.37v1.36a2.3 2.3 0 0 1-.72.26 3.8 3.8 0 0 1-.88.1 2.56 2.56 0 0 1-1.38-.33 1.9 1.9 0 0 1-.76-.83A2.5 2.5 0 0 1 167 473v-5.49Z"/><path d="M83.27 512.52h26.1" class="cls-4"/><path d="m107.91 517.5 8.64-4.98-8.64-4.99z" class="cls-3"/><path d="M149.82 512.52h26.09" class="cls-4"/><path d="m174.46 517.5 8.63-4.98-8.63-4.99z" class="cls-3"/><path d="M216.36 512.52h26.1" class="cls-4"/><path d="m241 517.5 8.64-4.98-8.64-4.99z" class="cls-3"/></svg>