<svg xmlns="http://www.w3.org/2000/svg" id="!;>9_1" data-name="!;>9 1" viewBox="0 0 900 377.07"><defs><style>.cls-1,.cls-2,.cls-4{fill:none;stroke:#2d4942;stroke-miterlimit:10}.cls-1,.cls-2{stroke-width:2px}.cls-2{stroke-dasharray:10 10}.cls-3{fill:#2d4942}</style></defs><path d="M283.79 120.51v6h-6" class="cls-1"/><path d="M267.79 126.51h-15" class="cls-2"/><path d="M247.79 126.51h-6v-6" class="cls-1"/><path d="M241.79 110.51v-15" class="cls-2"/><path d="M241.79 90.51v-6h6" class="cls-1"/><path d="M257.79 84.51h15" class="cls-2"/><path d="M277.79 84.51h6v6" class="cls-1"/><path d="M283.79 100.51v15" class="cls-2"/><path d="M325.79 120.51v6h-6" class="cls-1"/><path d="M309.79 126.51h-15" class="cls-2"/><path d="M289.79 126.51h-6v-6" class="cls-1"/><path d="M283.79 110.51v-15" class="cls-2"/><path d="M283.79 90.51v-6h6" class="cls-1"/><path d="M299.79 84.51h15" class="cls-2"/><path d="M319.79 84.51h6v6" class="cls-1"/><path d="M325.79 100.51v15" class="cls-2"/><path d="M367.79 120.51v6h-6" class="cls-1"/><path d="M351.79 126.51h-15" class="cls-2"/><path d="M331.79 126.51h-6v-6" class="cls-1"/><path d="M325.79 110.51v-15" class="cls-2"/><path d="M325.79 90.51v-6h6" class="cls-1"/><path d="M341.79 84.51h15" class="cls-2"/><path d="M361.79 84.51h6v6" class="cls-1"/><path d="M367.79 100.51v15" class="cls-2"/><path d="M409.79 120.51v6h-6" class="cls-1"/><path d="M393.79 126.51h-15" class="cls-2"/><path d="M373.79 126.51h-6v-6" class="cls-1"/><path d="M367.79 110.51v-15" class="cls-2"/><path d="M367.79 90.51v-6h6" class="cls-1"/><path d="M383.79 84.51h15" class="cls-2"/><path d="M403.79 84.51h6v6" class="cls-1"/><path d="M409.79 100.51v15" class="cls-2"/><path d="M451.79 120.51v6h-6" class="cls-1"/><path d="M435.79 126.51h-15" class="cls-2"/><path d="M415.79 126.51h-6v-6" class="cls-1"/><path d="M409.79 110.51v-15" class="cls-2"/><path d="M409.79 90.51v-6h6" class="cls-1"/><path d="M425.79 84.51h15" class="cls-2"/><path d="M445.79 84.51h6v6" class="cls-1"/><path d="M451.79 100.51v15" class="cls-2"/><path d="M409.79 287.65v6h-6" class="cls-1"/><path d="M393.79 293.65h-15" class="cls-2"/><path d="M373.79 293.65h-6v-6" class="cls-1"/><path d="M367.79 277.65v-15" class="cls-2"/><path d="M367.79 257.65v-6h6" class="cls-1"/><path d="M383.79 251.65h15" class="cls-2"/><path d="M403.79 251.65h6v6" class="cls-1"/><path d="M409.79 267.65v15" class="cls-2"/><path d="M451.79 287.65v6h-6" class="cls-1"/><path d="M435.79 293.65h-15" class="cls-2"/><path d="M415.79 293.65h-6v-6" class="cls-1"/><path d="M409.79 277.65v-15" class="cls-2"/><path d="M409.79 257.65v-6h6" class="cls-1"/><path d="M425.79 251.65h15" class="cls-2"/><path d="M445.79 251.65h6v6" class="cls-1"/><path d="M451.79 267.65v15" class="cls-2"/><path d="M493.79 287.65v6h-6" class="cls-1"/><path d="M477.79 293.65h-15" class="cls-2"/><path d="M457.79 293.65h-6v-6" class="cls-1"/><path d="M451.79 277.65v-15" class="cls-2"/><path d="M451.79 257.65v-6h6" class="cls-1"/><path d="M467.79 251.65h15" class="cls-2"/><path d="M487.79 251.65h6v6" class="cls-1"/><path d="M493.79 267.65v15" class="cls-2"/><path d="M535.79 287.65v6h-6" class="cls-1"/><path d="M519.79 293.65h-15" class="cls-2"/><path d="M499.79 293.65h-6v-6" class="cls-1"/><path d="M493.79 277.65v-15" class="cls-2"/><path d="M493.79 257.65v-6h6" class="cls-1"/><path d="M509.79 251.65h15" class="cls-2"/><path d="M529.79 251.65h6v6" class="cls-1"/><path d="M535.79 267.65v15" class="cls-2"/><path d="M577.79 287.65v6h-6" class="cls-1"/><path d="M561.79 293.65h-15" class="cls-2"/><path d="M541.79 293.65h-6v-6" class="cls-1"/><path d="M535.79 277.65v-15" class="cls-2"/><path d="M535.79 257.65v-6h6" class="cls-1"/><path d="M551.79 251.65h15" class="cls-2"/><path d="M571.79 251.65h6v6" class="cls-1"/><path d="M577.79 267.65v15" class="cls-2"/><path d="M493.79 120.51v6h-6" class="cls-1"/><path d="M477.79 126.51h-15" class="cls-2"/><path d="M457.79 126.51h-6v-6" class="cls-1"/><path d="M451.79 110.51v-15" class="cls-2"/><path d="M451.79 90.51v-6h6" class="cls-1"/><path d="M467.79 84.51h15" class="cls-2"/><path d="M487.79 84.51h6v6" class="cls-1"/><path d="M493.79 100.51v15" class="cls-2"/><path d="M493.79 84.51h42v42h-42z" class="cls-1"/><path d="M514.83 111a3.25 3.25 0 0 1-2-.66 4.3 4.3 0 0 1-1.38-2 13 13 0 0 1 0-7.13 4.16 4.16 0 0 1 1.38-2 3.3 3.3 0 0 1 2-.64 3.2 3.2 0 0 1 2 .64 4.15 4.15 0 0 1 1.36 2 10.6 10.6 0 0 1 .49 3.54 10.8 10.8 0 0 1-.49 3.56 4.3 4.3 0 0 1-1.36 2.08 3.1 3.1 0 0 1-2 .61m0-1.34a1.8 1.8 0 0 0 1.25-.47 3.1 3.1 0 0 0 .79-1.55 16.3 16.3 0 0 0 0-5.8 3 3 0 0 0-.77-1.54 1.8 1.8 0 0 0-1.25-.47 1.84 1.84 0 0 0-1.26.47 3 3 0 0 0-.8 1.54 11.9 11.9 0 0 0-.28 2.9 12.4 12.4 0 0 0 .27 2.9 3 3 0 0 0 .79 1.55 1.84 1.84 0 0 0 1.24.51Z" class="cls-3"/><path d="M535.79 84.51h42v42h-42z" class="cls-1"/><path d="M558.38 110.87h-1.49V100.6l-3.24 2.58v-1.71l3.49-2.79h1.24Z" class="cls-3"/><path d="M241.79 167.85h42v42h-42zM283.79 167.85h42v42h-42zM325.79 167.85h42v42h-42zM367.79 167.85h42v42h-42zM409.79 167.85h42v42h-42zM451.79 167.85h42v42h-42z" class="cls-1"/><path d="M493.79 167.85h42v42h-42z" class="cls-1"/><path d="M514.84 194.38a4.7 4.7 0 0 1-2-.41 3.2 3.2 0 0 1-1.4-1.18 3.3 3.3 0 0 1-.51-1.86 3.32 3.32 0 0 1 .6-2 3.37 3.37 0 0 1 1.61-1.2 2.83 2.83 0 0 1-1.3-1 3 3 0 0 1-.48-1.72 3.1 3.1 0 0 1 .45-1.7 2.9 2.9 0 0 1 1.26-1.05 4.4 4.4 0 0 1 1.8-.36 4.3 4.3 0 0 1 1.77.35 2.87 2.87 0 0 1 1.25 1 2.94 2.94 0 0 1 .47 1.7 2.86 2.86 0 0 1-1.79 2.78 3.4 3.4 0 0 1 1.58 1.16 3.22 3.22 0 0 1 .6 2 3.4 3.4 0 0 1-.51 1.88 3.3 3.3 0 0 1-1.38 1.21 4.7 4.7 0 0 1-2.02.4m0-1.34a2.4 2.4 0 0 0 1.69-.62 2.58 2.58 0 0 0 0-3.49 2.4 2.4 0 0 0-1.69-.62 2.52 2.52 0 0 0-1.74.62 2.53 2.53 0 0 0 0 3.49 2.52 2.52 0 0 0 1.74.58Zm0-5.92a2 2 0 0 0 1.43-.52 1.82 1.82 0 0 0 .57-1.43 1.86 1.86 0 0 0-.57-1.44 2 2 0 0 0-1.43-.52 2.13 2.13 0 0 0-1.45.52 1.87 1.87 0 0 0-.58 1.44 1.83 1.83 0 0 0 .58 1.43 2.08 2.08 0 0 0 1.45.52" class="cls-3"/><path d="M535.79 167.85h42v42h-42z" class="cls-1"/><path d="M552.83 185.93a4.35 4.35 0 0 1 .52-2.14 3.7 3.7 0 0 1 1.4-1.43 3.9 3.9 0 0 1 2-.51 4 4 0 0 1 2.38.66 3.63 3.63 0 0 1 1.31 1.82 7.9 7.9 0 0 1 .41 2.69 13.7 13.7 0 0 1-.5 3.94 5.2 5.2 0 0 1-1.57 2.54 4 4 0 0 1-2.69.88 4.8 4.8 0 0 1-2.52-.63v-1.49a4.43 4.43 0 0 0 2.52.74 2.55 2.55 0 0 0 1.7-.57 3.86 3.86 0 0 0 1.08-1.57 7.4 7.4 0 0 0 .46-2.21 3.15 3.15 0 0 1-1.21 1 3.7 3.7 0 0 1-1.52.31 4 4 0 0 1-1.9-.45 3.46 3.46 0 0 1-1.35-1.36 4.53 4.53 0 0 1-.52-2.22m3.95-2.7a2.37 2.37 0 0 0-1.17.3 2.3 2.3 0 0 0-.89.88 3 3 0 0 0-.33 1.49 3.1 3.1 0 0 0 .33 1.49 2.2 2.2 0 0 0 .83.92 2 2 0 0 0 1.06.31 2.5 2.5 0 0 0 1.81-.71 2.7 2.7 0 0 0 .73-2 2.76 2.76 0 0 0-.64-1.91 2.18 2.18 0 0 0-1.73-.77M434.83 190.22a4.5 4.5 0 0 1-.51 2.18 3.7 3.7 0 0 1-1.4 1.46 3.8 3.8 0 0 1-2 .52 3.57 3.57 0 0 1-3.69-2.57 8.4 8.4 0 0 1-.42-2.77 12.8 12.8 0 0 1 .5-3.75 5.47 5.47 0 0 1 1.54-2.53 3.93 3.93 0 0 1 2.67-.91 4.8 4.8 0 0 1 2.48.63V184a4.27 4.27 0 0 0-2.48-.74 2.6 2.6 0 0 0-1.7.57 3.9 3.9 0 0 0-1.07 1.58 7.6 7.6 0 0 0-.46 2.23 3.6 3.6 0 0 1 1.24-1.14 3.2 3.2 0 0 1 1.54-.37 3.75 3.75 0 0 1 1.9.48 3.43 3.43 0 0 1 1.34 1.38 4.53 4.53 0 0 1 .52 2.23m-3.94 2.8a2.25 2.25 0 0 0 2.05-1.24 3.1 3.1 0 0 0 .34-1.53 3.3 3.3 0 0 0-.33-1.55 2.33 2.33 0 0 0-.83-.94 2 2 0 0 0-1.07-.31 2.46 2.46 0 0 0-1.8.72 2.83 2.83 0 0 0-.73 2.11 3 3 0 0 0 .64 2 2.14 2.14 0 0 0 1.73.72ZM476.57 183.4l-5 10.81H470l5-10.73h-6V182h7.54ZM349.25 194.21h-1.44v-2.89h-5.07v-1l4.58-8.25h1.93v8h1.58v1.29h-1.58Zm-5-4.18h3.58v-6.34ZM388.29 194.38a5.12 5.12 0 0 1-3.13-.87v-1.66a5.1 5.1 0 0 0 1.44.86 5 5 0 0 0 1.69.28 2.35 2.35 0 0 0 1.87-.77 3 3 0 0 0 .66-2 2.56 2.56 0 0 0-.65-1.94 2.32 2.32 0 0 0-1.65-.61 2.45 2.45 0 0 0-1.17.24 2.7 2.7 0 0 0-.67.52h-1.19V182h6.35v1.46h-5V187a3.6 3.6 0 0 1 .8-.45 3 3 0 0 1 1.13-.2 3.8 3.8 0 0 1 1.83.44 3.17 3.17 0 0 1 1.3 1.29 4.3 4.3 0 0 1 .48 2.13 4.7 4.7 0 0 1-.49 2.21 3.53 3.53 0 0 1-1.42 1.47 4.3 4.3 0 0 1-2.18.49M266.57 194.21h-7.47v-1.61c1.16-1 2.12-1.81 2.87-2.5a20 20 0 0 0 1.75-1.81 5.5 5.5 0 0 0 .88-1.44 3.7 3.7 0 0 0 .25-1.34 2.2 2.2 0 0 0-.6-1.65 2.26 2.26 0 0 0-1.67-.6 4.2 4.2 0 0 0-3.17 1.69v-1.72a4.36 4.36 0 0 1 3.22-1.38 4 4 0 0 1 2.79 1 3.3 3.3 0 0 1 1 2.55 4.9 4.9 0 0 1-.25 1.59 5.6 5.6 0 0 1-.89 1.59 16 16 0 0 1-1.72 1.84c-.73.68-1.66 1.47-2.78 2.38h5.77ZM303 188.57v-1.45h1.57a2.16 2.16 0 0 0 1.5-.52 1.88 1.88 0 0 0 .58-1.47 1.76 1.76 0 0 0-.54-1.36 2.2 2.2 0 0 0-1.56-.51 3.9 3.9 0 0 0-1.59.33 6 6 0 0 0-1.55 1V183a4.74 4.74 0 0 1 3.16-1.11 3.75 3.75 0 0 1 2.64.89 3 3 0 0 1 1 2.31 2.66 2.66 0 0 1-.61 1.83 2.93 2.93 0 0 1-1.47.91 3.05 3.05 0 0 1 2.21 1.47 2.8 2.8 0 0 1 .36 1.43 3.44 3.44 0 0 1-2 3.24 5 5 0 0 1-2.18.45 4.84 4.84 0 0 1-3.34-1v-1.7a4.4 4.4 0 0 0 1.5 1 4.9 4.9 0 0 0 1.85.36 2.8 2.8 0 0 0 1.91-.61 2.07 2.07 0 0 0 .69-1.65 2 2 0 0 0-.63-1.59 2.8 2.8 0 0 0-1.93-.57Z" class="cls-3"/><path d="M241.79 251.65h42v42h-42zM283.79 251.65h42v42h-42zM325.79 251.65h42v42h-42z" class="cls-1"/><path d="M343.88 278h-1.49v-10.26l-3.24 2.59v-1.72l3.49-2.79h1.24ZM355.07 278h-7.48v-1.62c1.17-1 2.13-1.8 2.87-2.49a20 20 0 0 0 1.75-1.81 5.6 5.6 0 0 0 .89-1.44 3.7 3.7 0 0 0 .25-1.34 2.2 2.2 0 0 0-.6-1.65 2.28 2.28 0 0 0-1.67-.6 4.24 4.24 0 0 0-3.18 1.68V267a4.38 4.38 0 0 1 3.23-1.38 4 4 0 0 1 2.79.94 3.33 3.33 0 0 1 1 2.56 4.9 4.9 0 0 1-.26 1.59 5.3 5.3 0 0 1-.88 1.58 15 15 0 0 1-1.72 1.85c-.73.68-1.66 1.47-2.79 2.38h5.78ZM259.88 278h-1.49v-10.26l-3.24 2.59v-1.72l3.49-2.79h1.24ZM267.32 278.18a3.24 3.24 0 0 1-2-.66 4.3 4.3 0 0 1-1.38-2 13 13 0 0 1 0-7.13 4.16 4.16 0 0 1 1.38-2 3.28 3.28 0 0 1 2-.64 3.23 3.23 0 0 1 2 .64 4.2 4.2 0 0 1 1.36 2 10.6 10.6 0 0 1 .49 3.54 10.8 10.8 0 0 1-.49 3.56 4.37 4.37 0 0 1-1.36 2.08 3.14 3.14 0 0 1-2 .61m0-1.34a1.8 1.8 0 0 0 1.25-.47 3.1 3.1 0 0 0 .78-1.55 16 16 0 0 0 0-5.79 2.93 2.93 0 0 0-.78-1.55 1.8 1.8 0 0 0-1.25-.47 1.84 1.84 0 0 0-1.26.47 3.1 3.1 0 0 0-.8 1.55 12.2 12.2 0 0 0-.28 2.89 12.4 12.4 0 0 0 .27 2.9 3 3 0 0 0 .8 1.55 1.84 1.84 0 0 0 1.26.47ZM301.88 278h-1.49v-10.26l-3.24 2.59v-1.72l3.49-2.79h1.24ZM310.88 278h-1.49v-10.26l-3.24 2.59v-1.72l3.48-2.79h1.25Z" class="cls-3"/><path d="M514.79 29.39v42.52" class="cls-4"/><path d="m509.81 70.45 4.98 8.63 4.99-8.63z" class="cls-3"/><path d="M392.38 348.17v-42.51" class="cls-4"/><path d="m397.36 307.12-4.98-8.64-4.99 8.64z" class="cls-3"/><path d="M106.43 188.85h125.19" class="cls-4"/><path d="m230.16 193.84 8.63-4.99-8.63-4.98z" class="cls-3"/><path d="m106.43 222.17 125.65 47.46" class="cls-4"/><path d="m228.95 273.78 9.84-1.61-6.31-7.72z" class="cls-3"/><path d="M376.24 367.63a5.5 5.5 0 0 1-2.52-.55 3.77 3.77 0 0 1-1.62-1.59 5.3 5.3 0 0 1-.57-2.56 5.6 5.6 0 0 1 .54-2.56 4 4 0 0 1 1.52-1.63 4.36 4.36 0 0 1 2.26-.57 3.9 3.9 0 0 1 2 .53 3.5 3.5 0 0 1 1.32 1.49 5.24 5.24 0 0 1 .47 2.3v.7h-6.61a3.9 3.9 0 0 0 .45 1.89 2.3 2.3 0 0 0 1.14 1 4.3 4.3 0 0 0 1.67.3 5.4 5.4 0 0 0 1.48-.21 8.6 8.6 0 0 0 1.46-.54V367a7.2 7.2 0 0 1-1.56.49 8 8 0 0 1-1.43.14m1.92-5.67a3.45 3.45 0 0 0-.31-1.36 2 2 0 0 0-.77-.88 2.36 2.36 0 0 0-1.23-.31 2.54 2.54 0 0 0-1.85.69 3.2 3.2 0 0 0-.89 1.86ZM382.07 367.46v-9.12h1.22l.22 1.35h.09a2.5 2.5 0 0 1 .71-.86 2.9 2.9 0 0 1 1-.5 5 5 0 0 1 1.25-.16 2.83 2.83 0 0 1 3.06 3.2v6.09h-1.52v-5.82a2.55 2.55 0 0 0-.46-1.69 1.92 1.92 0 0 0-1.51-.54 2.15 2.15 0 0 0-2 .89 4.57 4.57 0 0 0-.57 2.48v4.68ZM395.57 367.63a3.9 3.9 0 0 1-1.52-.29 3.14 3.14 0 0 1-1.19-.89 4.1 4.1 0 0 1-.75-1.49 7.4 7.4 0 0 1-.27-2.11 6.7 6.7 0 0 1 .44-2.56 3.25 3.25 0 0 1 1.3-1.58 4 4 0 0 1 2.16-.54 3.4 3.4 0 0 1 1.11.17 2.7 2.7 0 0 1 .83.47 2.3 2.3 0 0 1 .56.69h.1v-.4c0-.15 0-.31-.05-.48s0-.32 0-.46v-3.62h1.51v12.92h-1.26l-.17-1.23h-.07a3 3 0 0 1-.62.72 2.7 2.7 0 0 1-.86.5 3.6 3.6 0 0 1-1.25.18m.29-1.25a2 2 0 0 0 1.79-.84 3.93 3.93 0 0 0 .59-2.28v-.34a7 7 0 0 0-.22-1.8 2.65 2.65 0 0 0-.74-1.25 2 2 0 0 0-1.37-.46 2.17 2.17 0 0 0-1.85.89 4.6 4.6 0 0 0-.65 2.7 4.37 4.37 0 0 0 .6 2.53 2.11 2.11 0 0 0 1.85.85M407 370.14a9.8 9.8 0 0 1-1.9-3.39 13 13 0 0 1-.6-3.95 13.4 13.4 0 0 1 .6-4 10.2 10.2 0 0 1 1.9-3.47h1.41a11.7 11.7 0 0 0-1.79 3.52 12.8 12.8 0 0 0-.61 3.94 12.5 12.5 0 0 0 .61 3.87 12 12 0 0 0 1.77 3.49ZM415.61 355.32a9.7 9.7 0 0 1 1.9 3.39 13 13 0 0 1 .6 4 13.4 13.4 0 0 1-.6 4 10.2 10.2 0 0 1-1.9 3.48h-1.41a11.6 11.6 0 0 0 1.79-3.53 12.8 12.8 0 0 0 .61-3.93 12.4 12.4 0 0 0-.61-3.87 12 12 0 0 0-1.77-3.49Z"/><path d="M0 138.88h105.14v33.31H0z" class="cls-1"/><path d="M28.38 151.72h1.31l.15 1.71a3.64 3.64 0 0 1 1.16-1.37 3.3 3.3 0 0 1 1.86-.51 3.66 3.66 0 0 1 3.34 2 5.4 5.4 0 0 1 .54 2.56 5.34 5.34 0 0 1-.55 2.57 3.74 3.74 0 0 1-1.45 1.52 3.9 3.9 0 0 1-1.94.5 3.14 3.14 0 0 1-1.75-.48 3.3 3.3 0 0 1-1.19-1.31v4.63h-1.5Zm6.83 4.4a3.52 3.52 0 0 0-.73-2.42 2.39 2.39 0 0 0-1.88-.83 2.6 2.6 0 0 0-2 .81 4.18 4.18 0 0 0 0 4.89 2.64 2.64 0 0 0 2 .8 2.41 2.41 0 0 0 1.88-.82 3.5 3.5 0 0 0 .73-2.43M41.49 152.87a5.5 5.5 0 0 0-2.86.87v-1.34a5.5 5.5 0 0 1 1.45-.62 5.8 5.8 0 0 1 1.61-.23 4 4 0 0 1 2.53.69 2.58 2.58 0 0 1 .87 2.13v5.48a5 5 0 0 0 .06.69h-1.33a5 5 0 0 1-.1-.67 7 7 0 0 1 0-.76v-.25a4.2 4.2 0 0 1-.56.84 2.8 2.8 0 0 1-.94.72 3.3 3.3 0 0 1-1.46.29 2.73 2.73 0 0 1-1.92-.68 2.5 2.5 0 0 1-.73-1.92 2.39 2.39 0 0 1 1-2.13 5.2 5.2 0 0 1 2.89-.68h1.6v-.73a1.6 1.6 0 0 0-.48-1.31 2.6 2.6 0 0 0-1.63-.39m2.11 4.27v-.65h-1.5a3.7 3.7 0 0 0-2 .39 1.29 1.29 0 0 0-.6 1.14 1.34 1.34 0 0 0 .36 1 1.52 1.52 0 0 0 1.12.38 2.46 2.46 0 0 0 1.19-.28 2.8 2.8 0 0 0 .8-.68 3.2 3.2 0 0 0 .44-.76 1.8 1.8 0 0 0 .19-.54M50.68 160.18a4 4 0 0 1-1.93-.48 3.6 3.6 0 0 1-1.42-1.44 4.76 4.76 0 0 1-.54-2.38 4.84 4.84 0 0 1 .54-2.4 3.55 3.55 0 0 1 1.42-1.48 4.1 4.1 0 0 1 2-.48 3 3 0 0 1 2.9 1.76v-.18a7 7 0 0 1 0-.74c0-.29 0-.51.06-.67h1.39c0 .14 0 .37-.06.67s0 .54 0 .74v6.66a4.2 4.2 0 0 1-.45 2 3.12 3.12 0 0 1-1.42 1.33 6 6 0 0 1-2.57.47 5.45 5.45 0 0 1-3-.73v-1.34a5.5 5.5 0 0 0 1.43.56 7.2 7.2 0 0 0 1.63.17 3.3 3.3 0 0 0 2.28-.62 2.4 2.4 0 0 0 .64-1.81v-1.36a3.25 3.25 0 0 1-1.09 1.26 3.13 3.13 0 0 1-1.81.49m.28-1.34a2.5 2.5 0 0 0 1.84-.73 3 3 0 0 0 .74-2.23 3.1 3.1 0 0 0-.74-2.26 2.5 2.5 0 0 0-1.86-.75 2.56 2.56 0 0 0-1.88.75 3.07 3.07 0 0 0-.76 2.26 3 3 0 0 0 .76 2.22 2.62 2.62 0 0 0 1.94.74ZM61.36 160.71a4.48 4.48 0 0 1-3.36-1.22 4.7 4.7 0 0 1-1.16-3.37 5.24 5.24 0 0 1 .54-2.47 3.9 3.9 0 0 1 1.5-1.56 4.25 4.25 0 0 1 2.14-.54 3.42 3.42 0 0 1 3 1.33 4.9 4.9 0 0 1 .61 3.65h-6.26c.12 1.89 1.16 2.84 3.12 2.84a5.24 5.24 0 0 0 3-.92v1.34a5 5 0 0 1-1.43.67 5.6 5.6 0 0 1-1.7.25m-.36-7.84a2.48 2.48 0 0 0-1.67.6 2.8 2.8 0 0 0-.88 1.8h4.74a2.36 2.36 0 0 0-.53-1.77 2.13 2.13 0 0 0-1.66-.63M73.34 160.71a3.45 3.45 0 0 1-2.07-.66 4.4 4.4 0 0 1-1.44-2.05 12.7 12.7 0 0 1 0-7.13 4.24 4.24 0 0 1 1.44-2 3.5 3.5 0 0 1 2.07-.64 3.45 3.45 0 0 1 2.06.64 4.2 4.2 0 0 1 1.41 2 10.3 10.3 0 0 1 .51 3.54 10.5 10.5 0 0 1-.51 3.56A4.36 4.36 0 0 1 75.4 160a3.35 3.35 0 0 1-2.06.71m0-1.34a1.92 1.92 0 0 0 1.3-.47 3 3 0 0 0 .81-1.55 11.8 11.8 0 0 0 .28-2.9 12.4 12.4 0 0 0-.27-2.9 3 3 0 0 0-.8-1.54 2 2 0 0 0-1.31-.47A1.92 1.92 0 0 0 72 150a3 3 0 0 0-.84 1.54 11.8 11.8 0 0 0-.29 2.9 12.3 12.3 0 0 0 .28 2.9 3 3 0 0 0 .85 1.56 2 2 0 0 0 1.33.47Z"/><path d="M0 172.2h105.14v33.31H0z" class="cls-1"/><path d="M28.38 185h1.31l.15 1.72a3.5 3.5 0 0 1 1.16-1.34 3.2 3.2 0 0 1 1.86-.52 3.66 3.66 0 0 1 3.34 2 5.4 5.4 0 0 1 .54 2.56 5.34 5.34 0 0 1-.55 2.57 3.7 3.7 0 0 1-1.45 1.52 3.8 3.8 0 0 1-1.94.5 3.2 3.2 0 0 1-1.75-.47 3.4 3.4 0 0 1-1.19-1.31v4.62h-1.5Zm6.83 4.4a3.54 3.54 0 0 0-.73-2.42 2.38 2.38 0 0 0-1.88-.82 2.64 2.64 0 0 0-2 .8 4.18 4.18 0 0 0 0 4.89 2.64 2.64 0 0 0 2 .8 2.38 2.38 0 0 0 1.88-.82 3.5 3.5 0 0 0 .73-2.4ZM41.49 186.19a5.6 5.6 0 0 0-2.86.86v-1.34a5.5 5.5 0 0 1 1.45-.62 6.1 6.1 0 0 1 1.61-.23 3.9 3.9 0 0 1 2.53.7 2.55 2.55 0 0 1 .87 2.12v5.48a5 5 0 0 0 .06.69h-1.33a5 5 0 0 1-.1-.67 7 7 0 0 1 0-.76v-.25a4.2 4.2 0 0 1-.56.84 2.8 2.8 0 0 1-.94.72 3.2 3.2 0 0 1-1.46.29 2.7 2.7 0 0 1-1.92-.68 2.5 2.5 0 0 1-.73-1.92 2.36 2.36 0 0 1 1-2.12 5.1 5.1 0 0 1 2.88-.68h1.61v-.73a1.59 1.59 0 0 0-.48-1.31 2.6 2.6 0 0 0-1.63-.39m2.11 4.26v-.64h-1.5a3.7 3.7 0 0 0-2 .39 1.27 1.27 0 0 0-.6 1.14 1.35 1.35 0 0 0 .36 1 1.5 1.5 0 0 0 1.12.37 2.35 2.35 0 0 0 1.19-.28 2.7 2.7 0 0 0 .8-.68 3.2 3.2 0 0 0 .44-.76 1.6 1.6 0 0 0 .19-.54M50.68 193.5a4 4 0 0 1-1.93-.49 3.55 3.55 0 0 1-1.42-1.43 5.58 5.58 0 0 1 0-4.79 3.6 3.6 0 0 1 1.42-1.45 4.1 4.1 0 0 1 2-.48 3.07 3.07 0 0 1 2.9 1.77v-.19a7 7 0 0 1 0-.74c0-.29 0-.51.06-.67h1.39c0 .15 0 .37-.06.67s0 .55 0 .74v6.66a4.2 4.2 0 0 1-.45 2 3.12 3.12 0 0 1-1.42 1.33 5.8 5.8 0 0 1-2.57.48 5.44 5.44 0 0 1-3-.74v-1.34a5.5 5.5 0 0 0 1.43.56 6.7 6.7 0 0 0 1.63.17 3.24 3.24 0 0 0 2.28-.62 2.4 2.4 0 0 0 .64-1.81v-1.36a3.25 3.25 0 0 1-1.15 1.23 3.05 3.05 0 0 1-1.75.5m.28-1.35a2.5 2.5 0 0 0 1.84-.73 3 3 0 0 0 .74-2.23 3.12 3.12 0 0 0-.74-2.26 2.52 2.52 0 0 0-1.86-.74 2.6 2.6 0 0 0-1.88.74 3.08 3.08 0 0 0-.76 2.26 3 3 0 0 0 .76 2.22 2.58 2.58 0 0 0 1.94.74ZM61.36 194a4.48 4.48 0 0 1-3.36-1.19 4.72 4.72 0 0 1-1.16-3.38 5.2 5.2 0 0 1 .54-2.46 4 4 0 0 1 1.5-1.57 4.25 4.25 0 0 1 2.14-.54 3.44 3.44 0 0 1 3 1.33 4.9 4.9 0 0 1 .61 3.65h-6.26c.12 1.89 1.16 2.84 3.12 2.84a5.24 5.24 0 0 0 3-.92v1.34a5 5 0 0 1-1.43.68 5.9 5.9 0 0 1-1.7.22m-.36-7.81a2.47 2.47 0 0 0-1.67.59 2.86 2.86 0 0 0-.88 1.8h4.74a2.36 2.36 0 0 0-.53-1.77 2.16 2.16 0 0 0-1.66-.62M75 193.85h-1.59v-10.27l-3.36 2.59v-1.72l3.62-2.79H75Z"/><path d="M0 205.51h105.14v33.31H0z" class="cls-1"/><path d="M28.38 218.34h1.31l.15 1.72a3.6 3.6 0 0 1 1.16-1.37 3.3 3.3 0 0 1 1.86-.52 3.65 3.65 0 0 1 3.34 2 5.4 5.4 0 0 1 .54 2.56 5.3 5.3 0 0 1-.55 2.56 3.7 3.7 0 0 1-1.45 1.52 3.83 3.83 0 0 1-1.94.51 3.14 3.14 0 0 1-1.75-.48 3.35 3.35 0 0 1-1.19-1.31v4.63h-1.5Zm6.83 4.41a3.55 3.55 0 0 0-.73-2.43 2.38 2.38 0 0 0-1.88-.82 2.6 2.6 0 0 0-2 .81 4.16 4.16 0 0 0 0 4.88 2.6 2.6 0 0 0 2 .8 2.4 2.4 0 0 0 1.88-.81 3.55 3.55 0 0 0 .73-2.43M41.49 219.5a5.5 5.5 0 0 0-2.86.87V219a5.8 5.8 0 0 1 1.45-.62 6.1 6.1 0 0 1 1.61-.23 4 4 0 0 1 2.53.7 2.57 2.57 0 0 1 .87 2.13v5.48a5 5 0 0 0 .06.69h-1.33a6 6 0 0 1-.1-.67 8 8 0 0 1 0-.76v-.26a4 4 0 0 1-.56.85 3 3 0 0 1-.94.72 3.3 3.3 0 0 1-1.46.29 2.73 2.73 0 0 1-1.92-.68 2.54 2.54 0 0 1-.73-1.92 2.37 2.37 0 0 1 1-2.13 5.2 5.2 0 0 1 2.88-.68h1.61v-.73a1.6 1.6 0 0 0-.48-1.31 2.6 2.6 0 0 0-1.63-.37m2.11 4.27v-.65h-1.5a3.7 3.7 0 0 0-2 .39 1.27 1.27 0 0 0-.6 1.14 1.34 1.34 0 0 0 .36 1A1.5 1.5 0 0 0 41 226a2.35 2.35 0 0 0 1.19-.28A2.5 2.5 0 0 0 43 225a3.2 3.2 0 0 0 .44-.75 1.8 1.8 0 0 0 .16-.48M50.68 226.81a4 4 0 0 1-1.93-.48 3.64 3.64 0 0 1-1.42-1.44 4.8 4.8 0 0 1-.54-2.38 4.9 4.9 0 0 1 .54-2.41 3.5 3.5 0 0 1 1.42-1.44 4 4 0 0 1 2-.49 3.1 3.1 0 0 1 1.77.48 3.2 3.2 0 0 1 1.13 1.29v-.19a7 7 0 0 1 0-.73c0-.29 0-.52.06-.68h1.39c0 .15 0 .37-.06.68s0 .54 0 .73v6.67a4.2 4.2 0 0 1-.45 2 3.1 3.1 0 0 1-1.42 1.32 5.8 5.8 0 0 1-2.57.48 5.45 5.45 0 0 1-3-.73v-1.34a6 6 0 0 0 1.43.56 7.2 7.2 0 0 0 1.63.17 3.3 3.3 0 0 0 2.28-.62 2.4 2.4 0 0 0 .64-1.81v-1.36a3.15 3.15 0 0 1-1.09 1.25 3.05 3.05 0 0 1-1.81.47m.28-1.34a2.54 2.54 0 0 0 1.84-.73 3 3 0 0 0 .74-2.23 3.1 3.1 0 0 0-.74-2.26 2.5 2.5 0 0 0-1.86-.75 2.56 2.56 0 0 0-1.88.75 3.07 3.07 0 0 0-.76 2.26 3 3 0 0 0 .76 2.22 2.62 2.62 0 0 0 1.94.74ZM61.36 227.34a4.48 4.48 0 0 1-3.36-1.22 4.7 4.7 0 0 1-1.16-3.37 5.2 5.2 0 0 1 .54-2.47 3.9 3.9 0 0 1 1.5-1.56 4.16 4.16 0 0 1 2.14-.55 3.42 3.42 0 0 1 3 1.34 4.9 4.9 0 0 1 .61 3.64h-6.26c.12 1.9 1.16 2.84 3.12 2.84a5.23 5.23 0 0 0 3-.91v1.34a5 5 0 0 1-1.43.67 5.9 5.9 0 0 1-1.7.25M61 219.5a2.52 2.52 0 0 0-1.67.59 2.86 2.86 0 0 0-.88 1.81h4.74a2.36 2.36 0 0 0-.53-1.77 2.13 2.13 0 0 0-1.66-.63M77.24 227.17h-7.77v-1.62c1.21-1 2.21-1.81 3-2.5a18 18 0 0 0 1.82-1.81 5.3 5.3 0 0 0 .92-1.43 3.8 3.8 0 0 0 .26-1.35 2.17 2.17 0 0 0-.63-1.65 2.43 2.43 0 0 0-1.73-.59 4.45 4.45 0 0 0-3.3 1.68v-1.72a4.66 4.66 0 0 1 3.35-1.37 4.22 4.22 0 0 1 2.9.94 3.24 3.24 0 0 1 1.06 2.56 5 5 0 0 1-.26 1.59 5.6 5.6 0 0 1-.92 1.58 16 16 0 0 1-1.79 1.84c-.76.68-1.73 1.48-2.89 2.38h6Z"/><path d="M0 238.82h105.14v33.31H0z" style="fill:none;stroke:#2d4942;stroke-miterlimit:10;stroke-width:2px;stroke-dasharray:12"/><path d="M484.69 17.74a3.25 3.25 0 0 1-1.69-.4 3.4 3.4 0 0 1-1.08-.92h-.11l-.13 1.15h-1.23V4.65h1.48v4.06c0 .3 0 .62-.05.94h.06a3.2 3.2 0 0 1 1-1 3.3 3.3 0 0 1 1.72-.41 3.6 3.6 0 0 1 1.49.3 3 3 0 0 1 1.17.89 4.4 4.4 0 0 1 .78 1.57 7.4 7.4 0 0 1 .26 2 7.5 7.5 0 0 1-.26 2.06 4.3 4.3 0 0 1-.76 1.48 3 3 0 0 1-1.17.9 3.6 3.6 0 0 1-1.48.3m-.29-1.24a2 2 0 0 0 1.82-.9 4.9 4.9 0 0 0 .58-2.6 4.8 4.8 0 0 0-.58-2.57 2 2 0 0 0-1.84-.9 2.11 2.11 0 0 0-1.81.89 4.4 4.4 0 0 0-.64 2.54 4.7 4.7 0 0 0 .61 2.63 2.06 2.06 0 0 0 1.86.91M495 17.74a5.44 5.44 0 0 1-2.51-.54 3.85 3.85 0 0 1-1.63-1.59 5.3 5.3 0 0 1-.57-2.56 5.6 5.6 0 0 1 .55-2.56 3.9 3.9 0 0 1 1.51-1.63 4.4 4.4 0 0 1 2.26-.57 3.84 3.84 0 0 1 2.05.53A3.55 3.55 0 0 1 498 10.3a5.26 5.26 0 0 1 .46 2.31v.69h-6.61a3.8 3.8 0 0 0 .45 1.89 2.35 2.35 0 0 0 1.14 1 4.5 4.5 0 0 0 1.68.29 5.3 5.3 0 0 0 1.47-.2 11 11 0 0 0 1.47-.54v1.36a7.8 7.8 0 0 1-3.05.64Zm1.92-5.66a3.5 3.5 0 0 0-.3-1.37 2 2 0 0 0-.78-.87 2.25 2.25 0 0 0-1.23-.31 2.5 2.5 0 0 0-1.84.69 3.2 3.2 0 0 0-.89 1.86ZM504.19 21.74a8.2 8.2 0 0 1-1.76-.18 9 9 0 0 1-1.52-.47v-1.36a5.4 5.4 0 0 0 1.57.59 7.8 7.8 0 0 0 1.66.19 2.69 2.69 0 0 0 2.15-.72 3 3 0 0 0 .62-2V16.5h-.07a2.63 2.63 0 0 1-1.11 1 4.2 4.2 0 0 1-1.54.26 3.43 3.43 0 0 1-2.81-1.23 5.3 5.3 0 0 1-1-3.44 5.6 5.6 0 0 1 1-3.51 3.29 3.29 0 0 1 2.73-1.27 3.6 3.6 0 0 1 1.55.3 3 3 0 0 1 1.12 1h.09l.2-1.12h1.22v9.35a4.74 4.74 0 0 1-.44 2.17 2.8 2.8 0 0 1-1.36 1.31 5.3 5.3 0 0 1-2.3.42m.34-5.24a2.7 2.7 0 0 0 1-.18 1.8 1.8 0 0 0 .76-.56 2.8 2.8 0 0 0 .49-1 5.2 5.2 0 0 0 .17-1.4V13a5.6 5.6 0 0 0-.3-2 2.2 2.2 0 0 0-.86-1.13 2.37 2.37 0 0 0-1.32-.36 2.07 2.07 0 0 0-1.89.91A4.67 4.67 0 0 0 502 13a4.57 4.57 0 0 0 .62 2.59 2.2 2.2 0 0 0 1.91.91M511.06 17.57v-1l3.24-.25V9.73l-3-.22v-1h4.5v7.79l3 .25v1Zm3.85-10.76a1.1 1.1 0 0 1-.75-.27 1 1 0 0 1-.32-.8 1 1 0 0 1 .32-.83 1.23 1.23 0 0 1 1.51 0 1 1 0 0 1 .31.83 1 1 0 0 1-.31.8 1.12 1.12 0 0 1-.76.27M521.26 17.57V8.46h1.22l.22 1.34h.08a2.6 2.6 0 0 1 .71-.86 3.1 3.1 0 0 1 1-.49 4.6 4.6 0 0 1 1.26-.16 3.17 3.17 0 0 1 2.22.77 3.17 3.17 0 0 1 .84 2.43v6.08h-1.53v-5.81a2.53 2.53 0 0 0-.47-1.69 1.88 1.88 0 0 0-1.5-.54 2.15 2.15 0 0 0-2 .88 4.6 4.6 0 0 0-.58 2.49v4.67ZM536 20.26a9.6 9.6 0 0 1-1.89-3.39 13.1 13.1 0 0 1-.6-4 13.4 13.4 0 0 1 .6-4A10 10 0 0 1 536 5.43h1.41a11.8 11.8 0 0 0-1.8 3.57 13.2 13.2 0 0 0-.6 4 12.7 12.7 0 0 0 .6 3.86 12 12 0 0 0 1.78 3.5ZM544.6 5.43a9.6 9.6 0 0 1 1.89 3.39 13.1 13.1 0 0 1 .61 4 13.4 13.4 0 0 1-.61 4 10 10 0 0 1-1.89 3.48h-1.41a11.8 11.8 0 0 0 1.81-3.57 13.2 13.2 0 0 0 .6-3.94 12.7 12.7 0 0 0-.6-3.86 12 12 0 0 0-1.78-3.5Z"/><path d="m106.43 155.54 125.65-47.47" class="cls-4"/><path d="m232.48 113.25 6.31-7.71-9.84-1.62z" class="cls-3"/></svg>